<svg width="1512" height="699" viewBox="0 0 1512 699" fill="none" xmlns="http://www.w3.org/2000/svg">
<line opacity="0.07" x1="6.9068" y1="1.51426e-08" x2="6.90676" y2="699" stroke="white"/>
<line opacity="0.07" x1="382.344" y1="-1.51426e-08" x2="382.344" y2="699" stroke="white"/>
<line opacity="0.07" x1="756.5" y1="-1.51426e-08" x2="756.5" y2="699" stroke="white"/>
<line opacity="0.07" x1="1130.66" y1="1.70567e-08" x2="1130.66" y2="699" stroke="white"/>
<line opacity="0.07" x1="1504.81" y1="-1.51426e-08" x2="1504.81" y2="699" stroke="white"/>
<path d="M1511.5 256.5C1511.5 259.153 1508.69 261.5 1504.95 261.5C1501.21 261.5 1498.41 259.153 1498.41 256.5C1498.41 253.847 1501.21 251.5 1504.95 251.5C1508.69 251.5 1511.5 253.847 1511.5 256.5Z" fill="#F7931E" stroke="#101010"/>
<path d="M1137.34 150.5C1137.34 153.153 1134.54 155.5 1130.8 155.5C1127.06 155.5 1124.25 153.153 1124.25 150.5C1124.25 147.847 1127.06 145.5 1130.8 145.5C1134.54 145.5 1137.34 147.847 1137.34 150.5Z" fill="#4035B7" stroke="#101010"/>
<path d="M389.032 256.5C389.032 259.153 386.223 261.5 382.485 261.5C378.746 261.5 375.937 259.153 375.937 256.5C375.937 253.847 378.746 251.5 382.485 251.5C386.223 251.5 389.032 253.847 389.032 256.5Z" fill="#F7931E" stroke="#101010"/>
<path d="M13.5949 150.5C13.5949 153.153 10.786 155.5 7.04746 155.5C3.30891 155.5 0.5 153.153 0.5 150.5C0.5 147.847 3.30891 145.5 7.04746 145.5C10.786 145.5 13.5949 147.847 13.5949 150.5Z" fill="#00FFFF" stroke="#101010"/>
<path d="M763.188 54.5C763.188 57.1531 760.379 59.5 756.641 59.5C752.902 59.5 750.093 57.1531 750.093 54.5C750.093 51.8469 752.902 49.5 756.641 49.5C760.379 49.5 763.188 51.8469 763.188 54.5Z" fill="#B24E75" stroke="#101010"/>
</svg>
