<svg width="225" height="30" viewBox="0 0 225 30" fill="none" xmlns="http://www.w3.org/2000/svg">
<path d="M204.75 2.5H215.25C219.25 2.5 222.5 5.75 222.5 9.75V20.25C222.5 22.1728 221.736 24.0169 220.377 25.3765C219.017 26.7362 217.173 27.5 215.25 27.5H204.75C200.75 27.5 197.5 24.25 197.5 20.25V9.75C197.5 7.82718 198.264 5.98311 199.623 4.62348C200.983 3.26384 202.827 2.5 204.75 2.5ZM204.5 5C203.307 5 202.162 5.47411 201.318 6.31802C200.474 7.16193 200 8.30653 200 9.5V20.5C200 22.9875 202.012 25 204.5 25H215.5C216.693 25 217.838 24.5259 218.682 23.682C219.526 22.8381 220 21.6935 220 20.5V9.5C220 7.0125 217.987 5 215.5 5H204.5ZM216.562 6.875C216.977 6.875 217.374 7.03962 217.667 7.33265C217.96 7.62567 218.125 8.0231 218.125 8.4375C218.125 8.8519 217.96 9.24933 217.667 9.54235C217.374 9.83538 216.977 10 216.562 10C216.148 10 215.751 9.83538 215.458 9.54235C215.165 9.24933 215 8.8519 215 8.4375C215 8.0231 215.165 7.62567 215.458 7.33265C215.751 7.03962 216.148 6.875 216.562 6.875ZM210 8.75C211.658 8.75 213.247 9.40848 214.419 10.5806C215.592 11.7527 216.25 13.3424 216.25 15C216.25 16.6576 215.592 18.2473 214.419 19.4194C213.247 20.5915 211.658 21.25 210 21.25C208.342 21.25 206.753 20.5915 205.581 19.4194C204.408 18.2473 203.75 16.6576 203.75 15C203.75 13.3424 204.408 11.7527 205.581 10.5806C206.753 9.40848 208.342 8.75 210 8.75ZM210 11.25C209.005 11.25 208.052 11.6451 207.348 12.3483C206.645 13.0516 206.25 14.0054 206.25 15C206.25 15.9946 206.645 16.9484 207.348 17.6516C208.052 18.3549 209.005 18.75 210 18.75C210.995 18.75 211.948 18.3549 212.652 17.6516C213.355 16.9484 213.75 15.9946 213.75 15C213.75 14.0054 213.355 13.0516 212.652 12.3483C211.948 11.6451 210.995 11.25 210 11.25Z" fill="white"/>
<path d="M157.55 26.925C158.75 27.2875 159.962 27.5 161.25 27.5C164.565 27.5 167.745 26.183 170.089 23.8388C172.433 21.4946 173.75 18.3152 173.75 15C173.75 13.3585 173.427 11.733 172.798 10.2165C172.17 8.69989 171.25 7.3219 170.089 6.16116C168.928 5.00043 167.55 4.07969 166.034 3.45151C164.517 2.82332 162.892 2.5 161.25 2.5C159.608 2.5 157.983 2.82332 156.466 3.45151C154.95 4.07969 153.572 5.00043 152.411 6.16116C150.067 8.50537 148.75 11.6848 148.75 15C148.75 20.3125 152.087 24.875 156.8 26.675C156.687 25.7 156.575 24.0875 156.8 22.975L158.237 16.8C158.237 16.8 157.875 16.075 157.875 14.925C157.875 13.2 158.95 11.9125 160.175 11.9125C161.25 11.9125 161.75 12.7 161.75 13.7125C161.75 14.7875 161.037 16.325 160.675 17.8C160.462 19.025 161.325 20.1 162.575 20.1C164.8 20.1 166.525 17.725 166.525 14.375C166.525 11.375 164.375 9.325 161.287 9.325C157.762 9.325 155.687 11.95 155.687 14.7125C155.687 15.7875 156.037 16.875 156.612 17.5875C156.725 17.6625 156.725 17.7625 156.687 17.95L156.325 19.3125C156.325 19.525 156.187 19.6 155.975 19.45C154.375 18.75 153.45 16.475 153.45 14.6375C153.45 10.6875 156.25 7.1 161.65 7.1C165.95 7.1 169.3 10.1875 169.3 14.2875C169.3 18.5875 166.637 22.0375 162.825 22.0375C161.612 22.0375 160.425 21.3875 160 20.625L159.162 23.5875C158.875 24.6625 158.087 26.1 157.55 26.9625V26.925Z" fill="white"/>
<path d="M125.575 7.5C124.613 7.9375 123.575 8.225 122.5 8.3625C123.6 7.7 124.45 6.65 124.85 5.3875C123.813 6.0125 122.663 6.45 121.45 6.7C120.463 5.625 119.075 5 117.5 5C114.563 5 112.163 7.4 112.163 10.3625C112.163 10.7875 112.213 11.2 112.3 11.5875C107.85 11.3625 103.888 9.225 101.25 5.9875C100.788 6.775 100.525 7.7 100.525 8.675C100.525 10.5375 101.463 12.1875 102.913 13.125C102.025 13.125 101.2 12.875 100.475 12.5V12.5375C100.475 15.1375 102.325 17.3125 104.775 17.8C103.988 18.0153 103.163 18.0452 102.363 17.8875C102.702 18.9531 103.367 19.8855 104.264 20.5537C105.161 21.2218 106.244 21.5921 107.363 21.6125C105.467 23.113 103.118 23.9241 100.7 23.9125C100.275 23.9125 99.85 23.8875 99.425 23.8375C101.8 25.3625 104.625 26.25 107.65 26.25C117.5 26.25 122.913 18.075 122.913 10.9875C122.913 10.75 122.913 10.525 122.9 10.2875C123.95 9.5375 124.85 8.5875 125.575 7.5Z" fill="white"/>
<path d="M58.0537 6.6875C58.8525 6.6875 59.5913 6.75 60.2663 6.935C60.8788 7.04756 61.4634 7.27854 61.9875 7.615C62.48 7.92375 62.8488 8.3575 63.0938 8.91375C63.34 9.47 63.4625 10.1512 63.4625 10.8925C63.4625 11.7587 63.2788 12.5 62.8488 13.0562C62.48 13.6137 61.865 14.1075 61.1275 14.4787C62.1725 14.7887 62.9713 15.345 63.4625 16.0862C63.955 16.8287 64.2625 17.7562 64.2625 18.8075C64.2625 19.6737 64.0775 20.415 63.77 21.0337C63.4625 21.6525 62.9713 22.2087 62.4175 22.58C61.816 22.9779 61.151 23.2705 60.4513 23.445C59.7138 23.6312 58.9763 23.755 58.2388 23.755H50V6.6875H58.0537ZM57.5612 13.6125C58.2375 13.6125 58.7912 13.4275 59.2212 13.1187C59.6512 12.81 59.8363 12.2525 59.8363 11.5725C59.8363 11.2012 59.7737 10.83 59.6512 10.5837C59.5287 10.3362 59.3438 10.15 59.0988 9.965C58.8525 9.84125 58.6062 9.7175 58.2987 9.65625C57.9912 9.59375 57.685 9.59375 57.315 9.59375H53.75V13.6137H57.5625L57.5612 13.6125ZM57.7463 20.91C58.115 20.91 58.4837 20.8475 58.7912 20.7862C59.1017 20.7272 59.3954 20.6005 59.6512 20.415C59.9017 20.234 60.1113 20.0023 60.2663 19.735C60.3888 19.4262 60.5125 19.055 60.5125 18.6225C60.5125 17.7562 60.2662 17.1375 59.775 16.705C59.2825 16.3337 58.6062 16.1487 57.8075 16.1487H53.75V20.9112L57.7463 20.91ZM69.6112 20.8475C70.1025 21.3425 70.84 21.59 71.8237 21.59C72.5 21.59 73.115 21.405 73.6063 21.0962C74.0988 20.725 74.4062 20.3537 74.5287 19.9825H77.5413C77.0488 21.4662 76.3113 22.5175 75.3288 23.1975C74.3438 23.8162 73.1762 24.1875 71.7625 24.1875C70.858 24.1902 69.961 24.0223 69.1188 23.6925C68.3609 23.4082 67.685 22.941 67.1512 22.3325C66.5804 21.7632 66.1584 21.0622 65.9225 20.2912C65.615 19.4875 65.4912 18.6225 65.4912 17.6325C65.4912 16.705 65.615 15.84 65.9225 15.035C66.2181 14.2601 66.6556 13.5471 67.2125 12.9325C67.7663 12.3762 68.4425 11.8825 69.18 11.5725C70.0009 11.2426 70.8778 11.0745 71.7625 11.0775C72.8075 11.0775 73.73 11.2637 74.5287 11.6962C75.3287 12.1287 75.9425 12.6237 76.435 13.3662C76.9374 14.0794 77.3117 14.8746 77.5413 15.7162C77.6638 16.5812 77.725 17.4475 77.6638 18.4362H68.75C68.75 19.4262 69.1187 20.3537 69.6112 20.8487V20.8475ZM73.4838 14.355C73.0538 13.9225 72.3775 13.675 71.5775 13.675C71.1084 13.668 70.6446 13.7739 70.225 13.9837C69.8563 14.17 69.6113 14.4175 69.365 14.665C69.1387 14.9041 68.989 15.2053 68.935 15.53C68.8725 15.84 68.8112 16.0862 68.8112 16.3337H74.3438C74.2213 15.4062 73.9138 14.7887 73.4838 14.355ZM68.0737 7.8625H74.9587V9.5325H68.075V7.8625H68.0737Z" fill="white"/>
<path d="M15 2.5C13.3585 2.5 11.733 2.82332 10.2165 3.45151C8.69989 4.07969 7.3219 5.00043 6.16116 6.16117C3.81696 8.50537 2.5 11.6848 2.5 15C2.5 20.525 6.0875 25.2125 11.05 26.875C11.675 26.975 11.875 26.5875 11.875 26.25V24.1375C8.4125 24.8875 7.675 22.4625 7.675 22.4625C7.1 21.0125 6.2875 20.625 6.2875 20.625C5.15 19.85 6.375 19.875 6.375 19.875C7.625 19.9625 8.2875 21.1625 8.2875 21.1625C9.375 23.0625 11.2125 22.5 11.925 22.2C12.0375 21.3875 12.3625 20.8375 12.7125 20.525C9.9375 20.2125 7.025 19.1375 7.025 14.375C7.025 12.9875 7.5 11.875 8.3125 10.9875C8.1875 10.675 7.75 9.375 8.4375 7.6875C8.4375 7.6875 9.4875 7.35 11.875 8.9625C12.8625 8.6875 13.9375 8.55 15 8.55C16.0625 8.55 17.1375 8.6875 18.125 8.9625C20.5125 7.35 21.5625 7.6875 21.5625 7.6875C22.25 9.375 21.8125 10.675 21.6875 10.9875C22.5 11.875 22.975 12.9875 22.975 14.375C22.975 19.15 20.05 20.2 17.2625 20.5125C17.7125 20.9 18.125 21.6625 18.125 22.825V26.25C18.125 26.5875 18.325 26.9875 18.9625 26.875C23.925 25.2 27.5 20.525 27.5 15C27.5 13.3585 27.1767 11.733 26.5485 10.2165C25.9203 8.69989 24.9996 7.3219 23.8388 6.16117C22.6781 5.00043 21.3001 4.07969 19.7835 3.45151C18.267 2.82332 16.6415 2.5 15 2.5Z" fill="white"/>
</svg>
