<svg width="135" height="18" viewBox="0 0 135 18" fill="none" xmlns="http://www.w3.org/2000/svg">
<path d="M122.85 1.5H129.15C131.55 1.5 133.5 3.45 133.5 5.85V12.15C133.5 13.3037 133.042 14.4101 132.226 15.2259C131.41 16.0417 130.304 16.5 129.15 16.5H122.85C120.45 16.5 118.5 14.55 118.5 12.15V5.85C118.5 4.69631 118.958 3.58987 119.774 2.77409C120.59 1.9583 121.696 1.5 122.85 1.5ZM122.7 3C121.984 3 121.297 3.28446 120.791 3.79081C120.284 4.29716 120 4.98392 120 5.7V12.3C120 13.7925 121.207 15 122.7 15H129.3C130.016 15 130.703 14.7155 131.209 14.2092C131.716 13.7028 132 13.0161 132 12.3V5.7C132 4.2075 130.792 3 129.3 3H122.7ZM129.937 4.125C130.186 4.125 130.425 4.22377 130.6 4.39959C130.776 4.5754 130.875 4.81386 130.875 5.0625C130.875 5.31114 130.776 5.5496 130.6 5.72541C130.425 5.90123 130.186 6 129.937 6C129.689 6 129.45 5.90123 129.275 5.72541C129.099 5.5496 129 5.31114 129 5.0625C129 4.81386 129.099 4.5754 129.275 4.39959C129.45 4.22377 129.689 4.125 129.937 4.125ZM126 5.25C126.995 5.25 127.948 5.64509 128.652 6.34835C129.355 7.05161 129.75 8.00544 129.75 9C129.75 9.99456 129.355 10.9484 128.652 11.6516C127.948 12.3549 126.995 12.75 126 12.75C125.005 12.75 124.052 12.3549 123.348 11.6516C122.645 10.9484 122.25 9.99456 122.25 9C122.25 8.00544 122.645 7.05161 123.348 6.34835C124.052 5.64509 125.005 5.25 126 5.25ZM126 6.75C125.403 6.75 124.831 6.98705 124.409 7.40901C123.987 7.83097 123.75 8.40326 123.75 9C123.75 9.59674 123.987 10.169 124.409 10.591C124.831 11.0129 125.403 11.25 126 11.25C126.597 11.25 127.169 11.0129 127.591 10.591C128.013 10.169 128.25 9.59674 128.25 9C128.25 8.40326 128.013 7.83097 127.591 7.40901C127.169 6.98705 126.597 6.75 126 6.75Z" fill="#86848C"/>
<path d="M94.53 16.155C95.25 16.3725 95.9775 16.5 96.75 16.5C98.7391 16.5 100.647 15.7098 102.053 14.3033C103.46 12.8968 104.25 10.9891 104.25 9C104.25 8.01509 104.056 7.03982 103.679 6.12987C103.302 5.21993 102.75 4.39314 102.053 3.6967C101.357 3.00026 100.53 2.44781 99.6201 2.0709C98.7102 1.69399 97.7349 1.5 96.75 1.5C95.7651 1.5 94.7898 1.69399 93.8799 2.0709C92.9699 2.44781 92.1431 3.00026 91.4467 3.6967C90.0402 5.10322 89.25 7.01088 89.25 9C89.25 12.1875 91.2525 14.925 94.08 16.005C94.0125 15.42 93.945 14.4525 94.08 13.785L94.9425 10.08C94.9425 10.08 94.725 9.645 94.725 8.955C94.725 7.92 95.37 7.1475 96.105 7.1475C96.75 7.1475 97.05 7.62 97.05 8.2275C97.05 8.8725 96.6225 9.795 96.405 10.68C96.2775 11.415 96.795 12.06 97.545 12.06C98.88 12.06 99.915 10.635 99.915 8.625C99.915 6.825 98.625 5.595 96.7725 5.595C94.6575 5.595 93.4125 7.17 93.4125 8.8275C93.4125 9.4725 93.6225 10.125 93.9675 10.5525C94.035 10.5975 94.035 10.6575 94.0125 10.77L93.795 11.5875C93.795 11.715 93.7125 11.76 93.585 11.67C92.625 11.25 92.07 9.885 92.07 8.7825C92.07 6.4125 93.75 4.26 96.99 4.26C99.57 4.26 101.58 6.1125 101.58 8.5725C101.58 11.1525 99.9825 13.2225 97.695 13.2225C96.9675 13.2225 96.255 12.8325 96 12.375L95.4975 14.1525C95.325 14.7975 94.8525 15.66 94.53 16.1775V16.155Z" fill="#86848C"/>
<path d="M75.345 4.5C74.7675 4.7625 74.145 4.935 73.5 5.0175C74.16 4.62 74.67 3.99 74.91 3.2325C74.2875 3.6075 73.5975 3.87 72.87 4.02C72.2775 3.375 71.445 3 70.5 3C68.7375 3 67.2975 4.44 67.2975 6.2175C67.2975 6.4725 67.3275 6.72 67.38 6.9525C64.71 6.8175 62.3325 5.535 60.75 3.5925C60.4725 4.065 60.315 4.62 60.315 5.205C60.315 6.3225 60.8775 7.3125 61.7475 7.875C61.215 7.875 60.72 7.725 60.285 7.5V7.5225C60.285 9.0825 61.395 10.3875 62.865 10.68C62.3931 10.8092 61.8976 10.8271 61.4175 10.7325C61.6212 11.3719 62.0202 11.9313 62.5583 12.3322C63.0964 12.7331 63.7466 12.9553 64.4175 12.9675C63.2803 13.8678 61.8705 14.3545 60.42 14.3475C60.165 14.3475 59.91 14.3325 59.655 14.3025C61.08 15.2175 62.775 15.75 64.59 15.75C70.5 15.75 73.7475 10.845 73.7475 6.5925C73.7475 6.45 73.7475 6.315 73.74 6.1725C74.37 5.7225 74.91 5.1525 75.345 4.5Z" fill="#86848C"/>
<path d="M34.8322 4.01245C35.3115 4.01245 35.7548 4.04995 36.1597 4.16095C36.5273 4.22848 36.8781 4.36707 37.1925 4.56895C37.488 4.7542 37.7093 5.01445 37.8563 5.3482C38.004 5.68195 38.0775 6.0907 38.0775 6.53545C38.0775 7.0552 37.9673 7.49995 37.7093 7.8337C37.488 8.1682 37.119 8.46445 36.6765 8.6872C37.3035 8.8732 37.7828 9.20695 38.0775 9.6517C38.373 10.0972 38.5575 10.6537 38.5575 11.2845C38.5575 11.8042 38.4465 12.249 38.262 12.6202C38.0775 12.9915 37.7828 13.3252 37.4505 13.5479C37.0896 13.7867 36.6906 13.9622 36.2708 14.067C35.8282 14.1787 35.3857 14.2529 34.9433 14.2529H30V4.01245H34.8322ZM34.5367 8.16745C34.9425 8.16745 35.2747 8.05645 35.5328 7.8712C35.7908 7.68595 35.9018 7.35145 35.9018 6.94345C35.9018 6.7207 35.8642 6.49795 35.7907 6.3502C35.7172 6.2017 35.6063 6.08995 35.4593 5.97895C35.3115 5.9047 35.1638 5.83045 34.9792 5.7937C34.7947 5.7562 34.611 5.7562 34.389 5.7562H32.25V8.1682H34.5375L34.5367 8.16745ZM34.6477 12.546C34.869 12.546 35.0903 12.5084 35.2747 12.4717C35.461 12.4363 35.6372 12.3602 35.7907 12.249C35.941 12.1404 36.0668 12.0014 36.1597 11.841C36.2333 11.6557 36.3075 11.433 36.3075 11.1735C36.3075 10.6537 36.1597 10.2825 35.865 10.023C35.5695 9.8002 35.1637 9.6892 34.6845 9.6892H32.25V12.5467L34.6477 12.546ZM41.7667 12.5084C42.0615 12.8054 42.504 12.9539 43.0942 12.9539C43.5 12.9539 43.869 12.843 44.1637 12.6577C44.4593 12.435 44.6437 12.2122 44.7172 11.9895H46.5247C46.2292 12.8797 45.7868 13.5105 45.1973 13.9185C44.6063 14.2897 43.9058 14.5125 43.0575 14.5125C42.5148 14.5141 41.9766 14.4133 41.4713 14.2155C41.0165 14.0449 40.611 13.7646 40.2907 13.3994C39.9482 13.0579 39.695 12.6373 39.5535 12.1747C39.369 11.6925 39.2948 11.1735 39.2948 10.5795C39.2948 10.023 39.369 9.50395 39.5535 9.02095C39.7309 8.55602 39.9934 8.12821 40.3275 7.75945C40.6597 7.4257 41.0655 7.12945 41.508 6.94345C42.0005 6.7455 42.5267 6.64465 43.0575 6.64645C43.6845 6.64645 44.238 6.7582 44.7172 7.0177C45.1972 7.2772 45.5655 7.5742 45.861 8.0197C46.1624 8.4476 46.387 8.92473 46.5247 9.4297C46.5983 9.9487 46.635 10.4685 46.5983 11.0617H41.25C41.25 11.6557 41.4712 12.2122 41.7667 12.5092V12.5084ZM44.0903 8.61295C43.8323 8.35345 43.4265 8.20495 42.9465 8.20495C42.6651 8.20073 42.3867 8.26427 42.135 8.3902C41.9138 8.50195 41.7668 8.65045 41.619 8.79895C41.4832 8.94239 41.3934 9.12312 41.361 9.31795C41.3235 9.50395 41.2867 9.6517 41.2867 9.8002H44.6063C44.5328 9.2437 44.3483 8.8732 44.0903 8.61295ZM40.8442 4.71745H44.9752V5.71945H40.845V4.71745H40.8442Z" fill="#86848C"/>
<path d="M9 1.5C8.01509 1.5 7.03982 1.69399 6.12987 2.0709C5.21993 2.44781 4.39314 3.00026 3.6967 3.6967C2.29018 5.10322 1.5 7.01088 1.5 9C1.5 12.315 3.6525 15.1275 6.63 16.125C7.005 16.185 7.125 15.9525 7.125 15.75V14.4825C5.0475 14.9325 4.605 13.4775 4.605 13.4775C4.26 12.6075 3.7725 12.375 3.7725 12.375C3.09 11.91 3.825 11.925 3.825 11.925C4.575 11.9775 4.9725 12.6975 4.9725 12.6975C5.625 13.8375 6.7275 13.5 7.155 13.32C7.2225 12.8325 7.4175 12.5025 7.6275 12.315C5.9625 12.1275 4.215 11.4825 4.215 8.625C4.215 7.7925 4.5 7.125 4.9875 6.5925C4.9125 6.405 4.65 5.625 5.0625 4.6125C5.0625 4.6125 5.6925 4.41 7.125 5.3775C7.7175 5.2125 8.3625 5.13 9 5.13C9.6375 5.13 10.2825 5.2125 10.875 5.3775C12.3075 4.41 12.9375 4.6125 12.9375 4.6125C13.35 5.625 13.0875 6.405 13.0125 6.5925C13.5 7.125 13.785 7.7925 13.785 8.625C13.785 11.49 12.03 12.12 10.3575 12.3075C10.6275 12.54 10.875 12.9975 10.875 13.695V15.75C10.875 15.9525 10.995 16.1925 11.3775 16.125C14.355 15.12 16.5 12.315 16.5 9C16.5 8.01509 16.306 7.03982 15.9291 6.12987C15.5522 5.21993 14.9997 4.39314 14.3033 3.6967C13.6069 3.00026 12.7801 2.44781 11.8701 2.0709C10.9602 1.69399 9.98491 1.5 9 1.5Z" fill="#86848C"/>
</svg>
